<svg width="24" height="24" viewBox="0 0 24 24" fill="none" xmlns="http://www.w3.org/2000/svg">
<path fill-rule="evenodd" clip-rule="evenodd" d="M5.1892 3.48649C4.24632 3.48649 3.48649 4.24631 3.48649 5.18919V9.08108C3.48649 10.024 4.24632 10.7838 5.1892 10.7838H9.08107C10.024 10.7838 10.7838 10.024 10.7838 9.08108V5.18919C10.7838 4.24631 10.024 3.48649 9.08107 3.48649H5.1892ZM3 5.18919C3 3.97762 3.97764 3 5.1892 3H9.08107C10.2926 3 11.2703 3.97762 11.2703 5.18919V9.08108C11.2703 10.2926 10.2926 11.2703 9.08107 11.2703H5.1892C3.97764 11.2703 3 10.2926 3 9.08108V5.18919ZM14.9189 3.48649C13.976 3.48649 13.2162 4.24631 13.2162 5.18919V9.08108C13.2162 10.024 13.976 10.7838 14.9189 10.7838H18.8108C19.7537 10.7838 20.5135 10.024 20.5135 9.08108V5.18919C20.5135 4.24631 19.7537 3.48649 18.8108 3.48649H14.9189ZM12.7297 5.18919C12.7297 3.97762 13.7074 3 14.9189 3H18.8108C20.0224 3 21 3.97762 21 5.18919V9.08108C21 10.2926 20.0224 11.2703 18.8108 11.2703H14.9189C13.7074 11.2703 12.7297 10.2926 12.7297 9.08108V5.18919ZM5.1892 13.2162C4.24632 13.2162 3.48649 13.976 3.48649 14.9189V18.8108C3.48649 19.7537 4.24632 20.5135 5.1892 20.5135H9.08107C10.024 20.5135 10.7838 19.7537 10.7838 18.8108V14.9189C10.7838 13.976 10.024 13.2162 9.08107 13.2162H5.1892ZM3 14.9189C3 13.7074 3.97764 12.7297 5.1892 12.7297H9.08107C10.2926 12.7297 11.2703 13.7074 11.2703 14.9189V18.8108C11.2703 20.0224 10.2926 21 9.08107 21H5.1892C3.97764 21 3 20.0224 3 18.8108V14.9189ZM14.9189 13.2162C13.976 13.2162 13.2162 13.976 13.2162 14.9189V18.8108C13.2162 19.7537 13.976 20.5135 14.9189 20.5135H18.8108C19.7537 20.5135 20.5135 19.7537 20.5135 18.8108V14.9189C20.5135 13.976 19.7537 13.2162 18.8108 13.2162H14.9189ZM12.7297 14.9189C12.7297 13.7074 13.7074 12.7297 14.9189 12.7297H18.8108C20.0224 12.7297 21 13.7074 21 14.9189V18.8108C21 20.0224 20.0224 21 18.8108 21H14.9189C13.7074 21 12.7297 20.0224 12.7297 18.8108V14.9189Z" fill="#373653"/>
</svg>
