<svg width="24" height="24" viewBox="0 0 24 24" fill="none" xmlns="http://www.w3.org/2000/svg">
<path fill-rule="evenodd" clip-rule="evenodd" d="M15.8919 3C14.7651 3 13.8371 3.85136 13.7161 4.94595L3 4.94595V5.43243L13.7161 5.43243C13.8371 6.52702 14.7651 7.37838 15.8919 7.37838C17.0187 7.37838 17.9467 6.52701 18.0677 5.43243L21 5.43243V4.94595H18.0677C17.9467 3.85137 17.0187 3 15.8919 3ZM15.8919 3.48649C14.9515 3.48649 14.1892 4.24882 14.1892 5.18919C14.1892 6.12956 14.9515 6.89189 15.8919 6.89189C16.8323 6.89189 17.5946 6.12957 17.5946 5.18919C17.5946 4.24881 16.8323 3.48649 15.8919 3.48649Z" fill="#373653"/>
<path fill-rule="evenodd" clip-rule="evenodd" d="M8.10809 9.81081C6.98126 9.81081 6.05328 10.6622 5.93228 11.7568H3V12.2432H5.93228C6.05328 13.3378 6.98126 14.1892 8.10809 14.1892C9.23492 14.1892 10.1629 13.3378 10.2839 12.2432L21 12.2432V11.7568L10.2839 11.7568C10.1629 10.6622 9.23492 9.81081 8.10809 9.81081ZM8.10809 10.2973C7.16773 10.2973 6.40541 11.0596 6.40541 12C6.40541 12.9404 7.16773 13.7027 8.10809 13.7027C9.04847 13.7027 9.81081 12.9404 9.81081 12C9.81081 11.0596 9.04847 10.2973 8.10809 10.2973Z" fill="#373653"/>
<path fill-rule="evenodd" clip-rule="evenodd" d="M15.8919 16.6216C14.7651 16.6216 13.8371 17.473 13.7161 18.5676H3V19.0541H13.7161C13.8371 20.1486 14.7651 21 15.8919 21C17.0187 21 17.9467 20.1486 18.0677 19.0541H21V18.5676H18.0677C17.9467 17.473 17.0187 16.6216 15.8919 16.6216ZM15.8919 17.1081C14.9515 17.1081 14.1892 17.8704 14.1892 18.8108C14.1892 19.7512 14.9515 20.5135 15.8919 20.5135C16.8323 20.5135 17.5946 19.7512 17.5946 18.8108C17.5946 17.8704 16.8323 17.1081 15.8919 17.1081Z" fill="#373653"/>
</svg>
