<svg width="24" height="24" viewBox="0 0 24 24" fill="none" xmlns="http://www.w3.org/2000/svg">
<path fill-rule="evenodd" clip-rule="evenodd" d="M12 15C13.6569 15 15 13.6569 15 12C15 10.3431 13.6569 9 12 9C10.3431 9 9 10.3431 9 12C9 13.6569 10.3431 15 12 15ZM12 14.5C13.3807 14.5 14.5 13.3807 14.5 12C14.5 10.6193 13.3807 9.5 12 9.5C10.6193 9.5 9.5 10.6193 9.5 12C9.5 13.3807 10.6193 14.5 12 14.5Z" fill="#373653"/>
<path fill-rule="evenodd" clip-rule="evenodd" d="M18 12C18 15.3137 15.3137 18 12 18C8.68629 18 6 15.3137 6 12C6 8.68629 8.68629 6 12 6C15.3137 6 18 8.68629 18 12ZM12 17.5C15.0376 17.5 17.5 15.0376 17.5 12C17.5 8.96243 15.0376 6.5 12 6.5C8.96243 6.5 6.5 8.96243 6.5 12C6.5 15.0376 8.96243 17.5 12 17.5Z" fill="#373653"/>
<path fill-rule="evenodd" clip-rule="evenodd" d="M20.9977 12.1064C20.9955 12.1735 20.9911 12.2706 20.9823 12.3936C20.9647 12.6395 20.9297 12.9892 20.8599 13.4082C20.7204 14.2451 20.441 15.3647 19.8797 16.4872C19.318 17.6106 18.4716 18.7415 17.1974 19.5909C15.9217 20.4414 14.2318 21 12 21C9.76825 21 8.07826 20.4414 6.80257 19.5909C5.52841 18.7415 4.682 17.6106 4.12027 16.4872C3.55903 15.3647 3.27961 14.2451 3.14013 13.4082C3.0703 12.9892 3.03529 12.6395 3.01772 12.3936C3.00839 12.2629 3.0004 12.1319 3 12.0009L3 3H21V12C20.9999 12.0355 20.9989 12.071 20.9977 12.1064ZM3.50297 12.3589C3.51961 12.5919 3.55301 12.9263 3.62 13.3283C3.75417 14.1333 4.02206 15.2029 4.5554 16.2696C5.08827 17.3353 5.88375 18.3937 7.07243 19.1861C8.25958 19.9776 9.85337 20.5135 12 20.5135C14.1466 20.5135 15.7404 19.9776 16.9276 19.1861C18.1162 18.3937 18.9117 17.3353 19.4446 16.2696C19.9779 15.2029 20.2458 14.1333 20.38 13.3283C20.447 12.9263 20.4804 12.5919 20.497 12.3589C20.5053 12.2425 20.5095 12.1515 20.5115 12.0902C20.5125 12.0604 20.5133 12.0305 20.5135 12.0006L20.5135 6.25V5.75V3.48649H3.48649L3.48649 5.75V6.25L3.48649 11.9999C3.48717 12.1197 3.49444 12.2395 3.50297 12.3589ZM18 12C18 15.3137 15.3137 18 12 18C8.68629 18 6 15.3137 6 12C6 8.68629 8.68629 6 12 6C15.3137 6 18 8.68629 18 12ZM17.5 12C17.5 15.0376 15.0376 17.5 12 17.5C8.96243 17.5 6.5 15.0376 6.5 12C6.5 8.96243 8.96243 6.5 12 6.5C15.0376 6.5 17.5 8.96243 17.5 12ZM12 15C13.6569 15 15 13.6569 15 12C15 10.3431 13.6569 9 12 9C10.3431 9 9 10.3431 9 12C9 13.6569 10.3431 15 12 15ZM14.5 12C14.5 13.3807 13.3807 14.5 12 14.5C10.6193 14.5 9.5 13.3807 9.5 12C9.5 10.6193 10.6193 9.5 12 9.5C13.3807 9.5 14.5 10.6193 14.5 12Z" fill="#373653"/>
</svg>
