<svg width="20" height="20" viewBox="0 0 20 20" fill="none" xmlns="http://www.w3.org/2000/svg">
<path fill-rule="evenodd" clip-rule="evenodd" d="M10 0.526316C4.76783 0.526316 0.526316 4.76783 0.526316 10C0.526316 15.2322 4.76783 19.4737 10 19.4737C15.2322 19.4737 19.4737 15.2322 19.4737 10C19.4737 4.76783 15.2322 0.526316 10 0.526316ZM0 10C0 4.47715 4.47715 0 10 0C15.5228 0 20 4.47715 20 10C20 15.5228 15.5228 20 10 20C4.47715 20 0 15.5228 0 10Z" fill="#373653"/>
<path d="M10.1122 12.9319H9.34277V12.6914C9.34277 12.4241 9.38552 12.1728 9.47101 11.9376C9.56719 11.6917 9.68474 11.4618 9.82367 11.248C9.97328 11.0342 10.1389 10.8364 10.3206 10.6546C10.5023 10.4622 10.6893 10.2751 10.8816 10.0933C11.0633 9.92225 11.245 9.74049 11.4267 9.54804C11.619 9.3449 11.79 9.13107 11.9396 8.90655C12.0999 8.68202 12.2282 8.45216 12.3243 8.21694C12.4312 7.97104 12.4846 7.71444 12.4846 7.44715C12.4846 7.09433 12.4152 6.78427 12.2763 6.51699C12.148 6.2497 11.9717 6.03052 11.7473 5.85945C11.5335 5.6777 11.2771 5.54405 10.9778 5.45852C10.6893 5.3623 10.3847 5.31419 10.0641 5.31419C9.81833 5.31419 9.56719 5.34091 9.31071 5.39437C9.05423 5.43714 8.81379 5.51733 8.58937 5.63493C8.37564 5.74185 8.17793 5.88084 7.99626 6.0519C7.82527 6.22297 7.69703 6.43145 7.61154 6.67736H6.84211C6.97035 6.29246 7.15202 5.97706 7.38712 5.73116C7.63292 5.48525 7.90542 5.28746 8.20465 5.13777C8.50387 4.98809 8.81913 4.88652 9.15041 4.83307C9.4817 4.76892 9.79696 4.73684 10.0962 4.73684C10.513 4.73684 10.903 4.79565 11.2664 4.91325C11.6404 5.02017 11.9663 5.18589 12.2442 5.41041C12.5327 5.62424 12.7571 5.89687 12.9174 6.22831C13.0777 6.55975 13.1579 6.94999 13.1579 7.39904C13.1579 8.00846 13.0029 8.54303 12.693 9.00277C12.3831 9.46251 11.9663 9.93828 11.4427 10.4301C11.261 10.6012 11.09 10.7669 10.9297 10.9272C10.7694 11.0876 10.6305 11.2587 10.513 11.4404C10.3954 11.6115 10.2992 11.7986 10.2244 12.0018C10.1496 12.2049 10.1122 12.4348 10.1122 12.6914V12.9319ZM9.75955 13.9802C9.93054 13.9802 10.0748 14.039 10.1924 14.1566C10.3206 14.2635 10.3847 14.4239 10.3847 14.6377C10.3847 14.8302 10.3259 14.9852 10.2084 15.1028C10.0908 15.2097 9.94122 15.2632 9.75955 15.2632C9.55651 15.2632 9.39621 15.2044 9.27865 15.0867C9.1611 14.9691 9.10232 14.8141 9.10232 14.6217C9.10232 14.4185 9.1611 14.2635 9.27865 14.1566C9.39621 14.039 9.55651 13.9802 9.75955 13.9802Z" fill="#373653"/>
</svg>
