<svg width="16" height="20" viewBox="0 0 16 20" fill="none" xmlns="http://www.w3.org/2000/svg">
<path fill-rule="evenodd" clip-rule="evenodd" d="M3 15H9V14.5122H3V15Z" fill="#373653"/>
<path d="M13 12V11.5122H3V12H13Z" fill="#373653"/>
<path fill-rule="evenodd" clip-rule="evenodd" d="M3 11.9878V12H13V11.9878H3Z" fill="#373653"/>
<path fill-rule="evenodd" clip-rule="evenodd" d="M13 11.9878V11.5122V11.5H3V11.5122V11.9878V12H13V11.9878ZM3 15H9V14.5122H3V15Z" fill="#373653"/>
<path fill-rule="evenodd" clip-rule="evenodd" d="M7.68442 0H2C0.895431 0 0 0.895431 0 2V18C0 19.1046 0.895431 20 2 20H14C15.1046 20 16 19.1046 16 18V8.36019C16 8.09602 15.8955 7.84259 15.7093 7.65523L8.39367 0.295046C8.20597 0.106193 7.95069 0 7.68442 0ZM0.484848 1.9878V18.0122C0.484848 18.8406 1.15642 19.5122 1.98485 19.5122H14.0152C14.8436 19.5122 15.5152 18.8406 15.5152 18.0122V8.5H8.5C7.94772 8.5 7.5 8.05228 7.5 7.5V0.487805H1.98485C1.15642 0.487805 0.484848 1.15938 0.484848 1.9878ZM8 7.5C8 7.77614 8.22386 8 8.5 8H15.5152L8 0.5V7.5Z" fill="#373653"/>
</svg>
