<svg width="20" height="14" viewBox="0 0 20 14" fill="none" xmlns="http://www.w3.org/2000/svg">
<path fill-rule="evenodd" clip-rule="evenodd" d="M3.5676 0.482759C1.85096 0.482759 0.487805 1.79364 0.487805 3.37605V10.624C0.487805 12.2158 1.85045 13.5172 3.5676 13.5172H16.4324C18.149 13.5172 19.5122 12.2064 19.5122 10.624V3.37605C19.5122 1.78469 18.1396 0.482759 16.4324 0.482759H3.5676ZM0 3.37605C0 1.50635 1.60293 0 3.5676 0H16.4324C18.3855 0 20 1.49546 20 3.37605V10.624C20 12.4937 18.3971 14 16.4324 14H3.5676C1.60344 14 0 12.5041 0 10.624V3.37605Z" fill="#373653"/>
<path fill-rule="evenodd" clip-rule="evenodd" d="M3.23174 2.5C2.82762 2.5 2.5 2.82422 2.5 3.22414V4H2.0122V3.22414C2.0122 2.55758 2.55823 2.01724 3.23174 2.01724H4V2.5H3.23174ZM16.7683 2.47477H16V1.99201H16.7683C17.4418 1.99201 17.9878 2.53236 17.9878 3.19891V4H17.5V3.19891C17.5 2.79898 17.1724 2.47477 16.7683 2.47477ZM7.80488 7C7.80488 5.80021 8.78767 4.82759 10 4.82759C11.2123 4.82759 12.1951 5.80021 12.1951 7C12.1951 8.19979 11.2123 9.17241 10 9.17241C8.78767 9.17241 7.80488 8.19979 7.80488 7ZM2.5 10L2.4878 10.7931C2.4878 11.193 2.8154 11.5172 3.21951 11.5172H4V12H3.21951C2.54599 12 2 11.4597 2 10.7931L2.0122 10H2.5ZM17.5122 10.7759V10H18V10.7759C18 11.4424 17.454 11.9828 16.7805 11.9828H16V11.5H16.7805C17.1846 11.5 17.5122 11.1758 17.5122 10.7759ZM10 5.31034C9.05707 5.31034 8.29268 6.06683 8.29268 7C8.29268 7.93317 9.05707 8.68966 10 8.68966C10.9429 8.68966 11.7073 7.93317 11.7073 7C11.7073 6.06683 10.9429 5.31034 10 5.31034Z" fill="#373653"/>
</svg>
