<svg width="21" height="15" viewBox="0 0 21 15" fill="none" xmlns="http://www.w3.org/2000/svg">
<path fill-rule="evenodd" clip-rule="evenodd" d="M13.002 0.502441H1.00195C0.725811 0.502441 0.501953 0.726299 0.501953 1.00244V7.00244C0.501953 10.5923 3.4121 13.5024 7.00195 13.5024H13.002C16.5918 13.5024 19.502 10.5923 19.502 7.00244C19.502 3.41259 16.5918 0.502441 13.002 0.502441ZM1.00195 0.00244141C0.449668 0.00244141 0.00195312 0.450157 0.00195312 1.00244V7.00244C0.00195312 10.8684 3.13596 14.0024 7.00195 14.0024H13.002C16.8679 14.0024 20.002 10.8684 20.002 7.00244C20.002 3.13645 16.8679 0.00244141 13.002 0.00244141H1.00195Z" fill="#373653"/>
<path d="M6.00195 8.00244C6.55424 8.00244 7.00195 7.55473 7.00195 7.00244C7.00195 6.45016 6.55424 6.00244 6.00195 6.00244C5.44967 6.00244 5.00195 6.45016 5.00195 7.00244C5.00195 7.55473 5.44967 8.00244 6.00195 8.00244Z" fill="#373653"/>
<path d="M10.002 8.00244C10.5542 8.00244 11.002 7.55473 11.002 7.00244C11.002 6.45016 10.5542 6.00244 10.002 6.00244C9.44967 6.00244 9.00195 6.45016 9.00195 7.00244C9.00195 7.55473 9.44967 8.00244 10.002 8.00244Z" fill="#373653"/>
<path d="M14.002 8.00244C14.5542 8.00244 15.002 7.55473 15.002 7.00244C15.002 6.45016 14.5542 6.00244 14.002 6.00244C13.4497 6.00244 13.002 6.45016 13.002 7.00244C13.002 7.55473 13.4497 8.00244 14.002 8.00244Z" fill="#373653"/>
</svg>
