<svg width="24" height="24" viewBox="0 0 24 24" fill="none" xmlns="http://www.w3.org/2000/svg">
<path fill-rule="evenodd" clip-rule="evenodd" d="M15.002 5.50244H3.00195C2.72581 5.50244 2.50195 5.7263 2.50195 6.00244V12.0024C2.50195 15.5923 5.4121 18.5024 9.00195 18.5024H15.002C18.5918 18.5024 21.502 15.5923 21.502 12.0024C21.502 8.41259 18.5918 5.50244 15.002 5.50244ZM3.00195 5.00244C2.44967 5.00244 2.00195 5.45016 2.00195 6.00244V12.0024C2.00195 15.8684 5.13596 19.0024 9.00195 19.0024H15.002C18.8679 19.0024 22.002 15.8684 22.002 12.0024C22.002 8.13645 18.8679 5.00244 15.002 5.00244H3.00195Z" fill="#373653"/>
<path d="M8.00195 13.0024C8.55424 13.0024 9.00195 12.5547 9.00195 12.0024C9.00195 11.4502 8.55424 11.0024 8.00195 11.0024C7.44967 11.0024 7.00195 11.4502 7.00195 12.0024C7.00195 12.5547 7.44967 13.0024 8.00195 13.0024Z" fill="#373653"/>
<path d="M12.002 13.0024C12.5542 13.0024 13.002 12.5547 13.002 12.0024C13.002 11.4502 12.5542 11.0024 12.002 11.0024C11.4497 11.0024 11.002 11.4502 11.002 12.0024C11.002 12.5547 11.4497 13.0024 12.002 13.0024Z" fill="#373653"/>
<path d="M16.002 13.0024C16.5542 13.0024 17.002 12.5547 17.002 12.0024C17.002 11.4502 16.5542 11.0024 16.002 11.0024C15.4497 11.0024 15.002 11.4502 15.002 12.0024C15.002 12.5547 15.4497 13.0024 16.002 13.0024Z" fill="#373653"/>
</svg>
