<svg width="18" height="20" viewBox="0 0 18 20" fill="none" xmlns="http://www.w3.org/2000/svg">
<path fill-rule="evenodd" clip-rule="evenodd" d="M9.24324 0.238095C9.24324 0.106599 9.13434 0 9 0C8.86566 0 8.75676 0.106599 8.75676 0.238095V1C4.97354 1.12549 1.94595 4.16703 1.94595 7.90073V12C0.851363 12.1184 0 13.0268 0 14.1298C0 15.3132 1.02287 16.5 2.23192 16.5H5.32118C5.32653 16.557 5.35238 16.6926 5.3757 16.815C5.38842 16.8818 5.40038 16.9446 5.40787 16.9885C5.46374 17.3166 5.57592 17.7577 5.80271 18.2017C6.02997 18.6466 6.37469 19.0988 6.89632 19.4392C7.41948 19.7806 8.10608 20 9 20C9.89392 20 10.5805 19.7806 11.1037 19.4392C11.6253 19.0988 11.97 18.6466 12.1973 18.2017C12.4241 17.7577 12.5363 17.3166 12.5921 16.9885C12.5993 16.9463 12.6105 16.8868 12.6224 16.8231C12.6458 16.6986 12.6721 16.5582 12.6776 16.5H15.8535C17.0626 16.5 18 15.3132 18 14.1298C18 13.0268 17.1486 12.1184 16.0541 12V7.90073C16.0541 4.16703 13.0265 1.12549 9.24324 1V0.238095ZM5.8631 16.6259C5.85958 16.5715 5.85655 16.5245 5.85395 16.5H12.1461C12.1434 16.5245 12.1404 16.5715 12.1369 16.6259C12.1305 16.7257 12.1224 16.8508 12.1123 16.9103C12.0617 17.2072 11.9611 17.5994 11.7622 17.9888C11.5638 18.3772 11.27 18.7584 10.8338 19.043C10.3992 19.3266 9.80879 19.5238 9 19.5238C8.19121 19.5238 7.60079 19.3266 7.16618 19.043C6.73004 18.7584 6.43624 18.3772 6.23783 17.9888C6.03895 17.5994 5.93829 17.2072 5.88774 16.9103C5.87761 16.8508 5.86954 16.7257 5.8631 16.6259ZM2.18919 12.4631C1.24881 12.4631 0.486486 13.2093 0.486486 14.1298C0.486486 15.0503 1.29155 16.0238 2.23192 16.0238H15.8535C16.7939 16.0238 17.5135 15.0503 17.5135 14.1298C17.5135 13.2093 16.7512 12.4631 15.8108 12.4631H15.5676V7.90073C15.5676 4.35033 12.6272 1.47216 9 1.47216C5.37283 1.47216 2.43243 4.35033 2.43243 7.90073V12.225V12.4631H2.18919Z" fill="#373653"/>
</svg>
