<svg width="190" height="190" viewBox="0 -31 190 190" fill="none" xmlns="http://www.w3.org/2000/svg">
<g filter="url(#filter0_i_250_1548)">
<g clip-path="url(#clip0_250_1548)">
<rect x="21.3633" y="-6.68115" width="143.779" height="144.296" rx="71.8895" fill="url(#paint0_linear_250_1548)"/>
<g filter="url(#filter1_f_250_1548)">
<circle cx="39.2965" cy="14.0983" r="64.3786" fill="#FFEBEB" fill-opacity="0.8"/>
</g>
</g>
</g>
<g filter="url(#filter2_ddi_250_1548)">
<path fill-rule="evenodd" clip-rule="evenodd" d="M100.033 28.3427C103.213 30.6805 106.974 31.5098 111.314 30.8307C115.654 30.1515 118.986 28.2123 121.31 25.0132C123.634 21.814 124.421 17.792 123.672 12.9472C123.17 9.6996 122.103 7.0039 120.47 4.86013C118.838 2.71636 116.789 1.21029 114.324 0.34192C111.912 -0.534732 109.303 -0.753573 106.498 -0.314603C103.693 0.124368 101.247 1.13418 99.1602 2.71484C97.1266 4.28722 95.6558 6.34407 94.7478 8.8854C93.8398 11.4267 93.6368 14.3212 94.139 17.5688C94.8882 22.4136 96.8529 26.0049 100.033 28.3427ZM149.041 0.930836C150.583 -2.3225 147.862 -5.96972 144.308 -5.41358L141.596 -4.98921C140.129 -4.75961 138.87 -3.81796 138.233 -2.47481L113.572 49.5655C112.031 52.8189 114.751 56.4661 118.305 55.91L121.017 55.4856C122.484 55.256 123.744 54.3143 124.38 52.9712L149.041 0.930836ZM112.194 20.2235C111.724 21.3877 110.986 22.0484 109.98 22.2058C108.974 22.3632 108.045 21.9633 107.192 21.0062C106.384 19.9875 105.791 18.2537 105.412 15.8047C105.034 13.3556 105.08 11.549 105.55 10.3848C106.065 9.15914 106.826 8.4676 107.831 8.31024C108.837 8.15287 109.744 8.58351 110.552 9.60216C111.404 10.5593 112.02 12.2624 112.399 14.7114C112.777 17.1604 112.709 18.9978 112.194 20.2235ZM144.835 48.3231C148.016 50.6608 151.776 51.4901 156.116 50.811C160.456 50.1318 163.788 48.1927 166.112 44.9935C168.436 41.7944 169.224 37.7724 168.474 32.9276C167.972 29.6799 166.905 26.9842 165.273 24.8405C163.64 22.6967 161.591 21.1906 159.126 20.3222C156.714 19.4456 154.105 19.2268 151.3 19.6657C148.495 20.1047 146.049 21.1145 143.962 22.6952C141.929 24.2675 140.458 26.3244 139.55 28.8657C138.642 31.4071 138.439 34.3015 138.941 37.5492C139.69 42.394 141.655 45.9853 144.835 48.3231ZM156.996 40.2038C156.526 41.368 155.788 42.0288 154.782 42.1861C153.777 42.3435 152.847 41.9436 151.995 40.9865C151.187 39.9679 150.593 38.234 150.215 35.785C149.836 33.336 149.882 31.5294 150.352 30.3652C150.868 29.1395 151.628 28.4479 152.634 28.2906C153.639 28.1332 154.546 28.5638 155.354 29.5825C156.207 30.5396 156.822 32.2427 157.201 34.6917C157.58 37.1407 157.511 38.9781 156.996 40.2038ZM90.4795 54.7551C82.719 49.9449 71.6451 48.6656 57.2579 50.917L55.1935 51.2401C52.5945 51.6468 50.2097 49.7376 50.0374 47.1122L49.6287 40.8866C49.4766 38.5683 51.1201 36.5148 53.415 36.1557L86.3315 31.0047C88.7771 30.622 90.453 28.3286 90.0748 25.8823L87.9655 12.2415C87.5873 9.79524 85.2981 8.12237 82.8525 8.50508L25.8703 17.4221C23.5708 17.782 21.9262 19.8425 22.0848 22.1649L25.6337 74.1376C25.8126 76.7579 28.1946 78.6597 30.789 78.2537L53.8597 74.6434C61.298 73.4794 66.6216 73.55 69.8307 74.8552C73.0397 76.1604 74.9095 78.5287 75.44 81.96C75.9706 85.3913 74.8705 88.3247 72.1396 90.7602C69.4915 93.0824 65.6717 94.6341 60.6802 95.4152C55.6888 96.1963 50.5836 96.2421 45.3648 95.5527C42.0121 95.0913 38.785 94.3304 35.6834 93.2702C33.1 92.3871 30.1789 93.6912 29.3961 96.311L24.9818 111.083C24.333 113.254 25.3984 115.584 27.5369 116.324C32.2254 117.945 37.4495 119.016 43.2093 119.536C50.6268 120.183 57.9568 119.94 65.1993 118.806C75.0844 117.259 83.112 114.397 89.2822 110.218C95.5351 105.926 99.8671 100.88 102.278 95.0808C104.772 89.168 105.526 83.0254 104.541 76.6529C103.025 66.8492 98.338 59.5499 90.4795 54.7551Z" fill="white"/>
</g>
<defs>
<filter id="filter0_i_250_1548" x="10.7693" y="-13.2005" width="154.373" height="150.816" filterUnits="userSpaceOnUse" color-interpolation-filters="sRGB">
<feFlood flood-opacity="0" result="BackgroundImageFix"/>
<feBlend mode="normal" in="SourceGraphic" in2="BackgroundImageFix" result="shape"/>
<feColorMatrix in="SourceAlpha" type="matrix" values="0 0 0 0 0 0 0 0 0 0 0 0 0 0 0 0 0 0 127 0" result="hardAlpha"/>
<feOffset dx="-10.5939" dy="-6.51935"/>
<feGaussianBlur stdDeviation="18.7431"/>
<feComposite in2="hardAlpha" operator="arithmetic" k2="-1" k3="1"/>
<feColorMatrix type="matrix" values="0 0 0 0 0.641667 0 0 0 0 0.0187153 0 0 0 0 0.0187153 0 0 0 0.4 0"/>
<feBlend mode="normal" in2="shape" result="effect1_innerShadow_250_1548"/>
</filter>
<filter id="filter1_f_250_1548" x="-62.5683" y="-87.7665" width="203.73" height="203.73" filterUnits="userSpaceOnUse" color-interpolation-filters="sRGB">
<feFlood flood-opacity="0" result="BackgroundImageFix"/>
<feBlend mode="normal" in="SourceGraphic" in2="BackgroundImageFix" result="shape"/>
<feGaussianBlur stdDeviation="18.7431" result="effect1_foregroundBlur_250_1548"/>
</filter>
<filter id="filter2_ddi_250_1548" x="0.886341" y="-18.5089" width="189.05" height="167.735" filterUnits="userSpaceOnUse" color-interpolation-filters="sRGB">
<feFlood flood-opacity="0" result="BackgroundImageFix"/>
<feColorMatrix in="SourceAlpha" type="matrix" values="0 0 0 0 0 0 0 0 0 0 0 0 0 0 0 0 0 0 127 0" result="hardAlpha"/>
<feOffset dy="4.07459"/>
<feGaussianBlur stdDeviation="4.07459"/>
<feComposite in2="hardAlpha" operator="out"/>
<feColorMatrix type="matrix" values="0 0 0 0 0.647059 0 0 0 0 0 0 0 0 0 0 0 0 0 0.25 0"/>
<feBlend mode="normal" in2="BackgroundImageFix" result="effect1_dropShadow_250_1548"/>
<feColorMatrix in="SourceAlpha" type="matrix" values="0 0 0 0 0 0 0 0 0 0 0 0 0 0 0 0 0 0 127 0" result="hardAlpha"/>
<feOffset dy="8.14918"/>
<feGaussianBlur stdDeviation="10.5939"/>
<feComposite in2="hardAlpha" operator="out"/>
<feColorMatrix type="matrix" values="0 0 0 0 0.495833 0 0 0 0 0 0 0 0 0 0 0 0 0 0.5 0"/>
<feBlend mode="normal" in2="effect1_dropShadow_250_1548" result="effect2_dropShadow_250_1548"/>
<feBlend mode="normal" in="SourceGraphic" in2="effect2_dropShadow_250_1548" result="shape"/>
<feColorMatrix in="SourceAlpha" type="matrix" values="0 0 0 0 0 0 0 0 0 0 0 0 0 0 0 0 0 0 127 0" result="hardAlpha"/>
<feOffset dx="-0.814918" dy="-2.44475"/>
<feGaussianBlur stdDeviation="2.44475"/>
<feComposite in2="hardAlpha" operator="arithmetic" k2="-1" k3="1"/>
<feColorMatrix type="matrix" values="0 0 0 0 0.425 0 0 0 0 0 0 0 0 0 0 0 0 0 0.44 0"/>
<feBlend mode="normal" in2="shape" result="effect3_innerShadow_250_1548"/>
</filter>
<linearGradient id="paint0_linear_250_1548" x1="38.8564" y1="-3.07374" x2="165.629" y2="132.832" gradientUnits="userSpaceOnUse">
<stop stop-color="#FF0000"/>
<stop offset="1" stop-color="#D10000"/>
</linearGradient>
<clipPath id="clip0_250_1548">
<rect x="21.3633" y="-6.68115" width="143.779" height="144.296" rx="71.8895" fill="white"/>
</clipPath>
</defs>
</svg>
