<svg width="145" height="34" viewBox="0 0 145 34" fill="none" xmlns="http://www.w3.org/2000/svg">
<path fill-rule="evenodd" clip-rule="evenodd" d="M6.90017 7.48031L23.0273 16.661C23.1138 16.7035 23.2002 16.746 23.33 16.746C23.5461 16.746 23.7623 16.6185 23.8488 16.406C23.9353 16.1934 23.892 15.9384 23.7191 15.8109L9.75377 3.31501C9.66729 3.23 9.53759 3.1875 9.36464 3.1875C9.1917 3.1875 9.01875 3.27251 8.93228 3.44252L6.68399 6.71526C6.59752 6.84276 6.59752 7.01278 6.64076 7.14029C6.64076 7.3103 6.77047 7.43781 6.90017 7.48031ZM30.2092 19.1661L28.4797 15.5959C28.3933 15.3833 28.1771 15.2983 27.9609 15.2983C27.8744 15.2983 27.7447 15.3408 27.6582 15.3833L11.5744 24.564C11.3582 24.6915 11.2285 24.9465 11.3149 25.1591C11.3582 25.4141 11.5744 25.5841 11.8338 25.5841C11.877 25.5841 11.9635 25.5841 12.0067 25.5416L29.8633 19.9312C30.1659 19.8462 30.3389 19.5061 30.2092 19.2511C30.2359 19.2249 30.2296 19.2148 30.2209 19.201C30.2155 19.1924 30.2092 19.1824 30.2092 19.1661ZM9.281 10.7097C9.36748 10.4547 9.58366 10.2847 9.84308 10.2847C10.1457 10.2847 10.4051 10.5397 10.4051 10.8372V29.1985C10.4051 29.4961 10.1457 29.7511 9.84308 29.7511H5.77887C5.60592 29.7511 5.43298 29.6661 5.34651 29.5386C5.2168 29.4111 5.2168 29.241 5.2168 29.071L9.281 10.7097Z" fill="#FF0000"/>
<path fill-rule="evenodd" clip-rule="evenodd" d="M58.9922 19.5487H64.4314C64.5513 19.5069 64.6313 19.5905 64.5913 19.7994L65.3912 21.7633C65.6312 22.3065 65.7512 22.599 65.7512 22.6826C65.7911 22.8079 65.8311 22.9751 65.8311 23.1422C65.8311 23.3929 65.7112 23.6018 65.5512 23.7272C65.1513 23.9779 64.6713 24.0615 64.2314 24.0197H63.9115V24.2286C63.9115 24.3957 64.0314 24.4793 64.1514 24.4793H71.5502C71.6702 24.4793 71.7902 24.354 71.7902 24.2286C71.7902 24.1033 71.7102 23.9779 71.5902 23.9779C71.2303 23.9361 70.9103 23.8108 70.6304 23.5601C70.2704 23.184 69.8305 22.3901 69.2706 21.053L63.4315 7.13867H63.1916L57.3925 20.6769C57.0326 21.5962 56.5526 22.4319 55.9927 23.2258C55.6728 23.6018 55.2328 23.8525 54.7529 23.9361C54.6329 23.9779 54.5529 24.0615 54.5529 24.1868C54.5529 24.354 54.6729 24.4375 54.7929 24.4375H59.7121C59.8321 24.4375 59.9521 24.3122 59.9521 24.1868C59.9521 24.0615 59.8721 23.9361 59.7521 23.9361C59.3122 23.8943 58.8323 23.8108 58.3923 23.6436C58.0324 23.4347 57.7924 23.0169 57.8324 22.599C57.8324 22.0976 57.9524 21.638 58.1524 21.2201L58.7923 19.7159C58.8323 19.5905 58.9123 19.5487 58.9922 19.5487ZM61.9518 13.281L64.0314 18.2952C64.0714 18.2952 64.0714 18.337 64.0314 18.4205C64.0314 18.5459 63.9115 18.6295 63.7915 18.6295H59.5921H59.5122C59.3922 18.5459 59.3522 18.4205 59.3922 18.2952L61.5118 13.281L61.6318 13.1557C61.7518 13.1139 61.9118 13.1557 61.9518 13.281ZM53.7121 7.3877H40.7542C40.6432 7.42636 40.6006 7.50081 40.4998 7.67726L40.4742 7.72197C40.4742 7.84733 40.5942 7.97268 40.7142 7.97268C41.674 8.01447 42.2339 8.13982 42.5539 8.43231C42.8738 8.7248 43.0338 9.35157 43.0338 10.3126C43.0338 14.2822 42.5939 17.4578 41.754 19.8395C40.9541 22.1377 39.5944 23.5166 37.7147 23.9762C37.6347 23.9762 37.5547 24.0598 37.5547 24.1851V29.1993C37.5547 29.3664 37.6747 29.45 37.7947 29.45H37.8346C37.9546 29.45 38.0746 29.3664 38.0746 29.2411C38.1946 27.904 38.7945 26.6504 39.7943 25.773C40.7942 24.8955 42.114 24.4776 43.7937 24.4776H48.193C49.7927 24.4776 51.0725 24.9373 51.9924 25.8565C52.8723 26.734 53.4322 27.9458 53.5122 29.1993C53.5521 29.3246 53.6321 29.4082 53.7521 29.4082C53.8721 29.4082 53.9921 29.2829 53.9921 29.1575V24.1851C53.9921 24.018 53.8721 23.9344 53.7521 23.9344C53.3122 23.9344 52.9122 23.8509 52.5123 23.6837C52.2324 23.5584 51.9524 23.3077 51.8324 22.9734C51.7124 22.472 51.6325 21.9705 51.6724 21.4691V10.1037C51.6724 9.22622 51.8324 8.59945 52.0724 8.34874C52.3123 8.09803 52.8723 7.9309 53.7521 7.88911C53.8721 7.84733 53.9521 7.76376 53.9521 7.6384C53.9521 7.51305 53.8321 7.3877 53.7121 7.3877ZM44.3136 8.4741H47.953C48.073 8.51588 48.153 8.59945 48.153 8.7248V22.0123C48.153 22.6391 48.113 22.9734 47.953 23.0987C47.7931 23.2241 47.3531 23.2659 46.5533 23.2659H41.3141C41.2341 23.2659 41.1941 23.2241 41.1541 23.1823C41.0741 23.0987 41.0741 22.9316 41.1541 22.848C41.754 22.1377 42.2339 21.302 42.5939 20.4245C43.1538 18.9621 43.5137 17.416 43.6737 15.87C43.9537 13.9061 44.0737 11.9422 44.0737 9.93656V8.7248C44.0737 8.59945 44.1936 8.4741 44.3136 8.4741ZM79.0291 16.2043C78.9091 16.2043 78.7891 16.3296 78.7891 16.455V21.4691C78.7491 22.0123 78.7891 22.5555 78.9091 23.0987C79.0291 23.3494 79.2291 23.5584 79.469 23.6837C79.789 23.8509 80.1889 23.9344 80.5488 23.9344H80.8688C80.9888 23.9344 81.0688 24.018 81.1088 24.1434C81.1088 24.2687 81.0288 24.3523 80.9088 24.3941H72.8701C72.7501 24.3941 72.6301 24.3105 72.6301 24.1434C72.6301 24.018 72.7101 23.8926 72.8701 23.8926H73.19C73.59 23.8926 73.9899 23.8091 74.3498 23.6419C74.5898 23.5166 74.7498 23.3077 74.8298 23.057C74.9497 22.5555 74.9897 22.0123 74.9497 21.4691V10.3126C74.9897 9.76942 74.9497 9.22622 74.8298 8.68302C74.7098 8.43231 74.5498 8.22339 74.3098 8.09803C73.9899 7.9309 73.59 7.84733 73.23 7.84733H72.9101C72.7901 7.84733 72.6701 7.76376 72.6701 7.6384C72.6701 7.51305 72.7501 7.3877 72.9101 7.3877H80.8688C80.9888 7.3877 81.1088 7.47126 81.1088 7.59662C81.1088 7.72197 81.0288 7.84733 80.8688 7.84733H80.5488C80.1489 7.84733 79.749 7.9309 79.429 8.09803C79.1891 8.22339 79.0291 8.43231 78.9491 8.68302C78.8291 9.18444 78.7891 9.72764 78.8291 10.2708V14.8254C78.8291 14.9507 78.9091 15.0761 79.0691 15.0761H84.3482C84.4682 15.0761 84.5882 14.9925 84.5882 14.8672V10.3126C84.6282 9.76942 84.5882 9.22622 84.4682 8.68302C84.3482 8.43231 84.1483 8.22339 83.9483 8.09803C83.6284 7.9309 83.2284 7.84733 82.8685 7.84733H82.4685C82.3486 7.84733 82.2286 7.76376 82.2286 7.6384C82.2286 7.51305 82.3086 7.3877 82.4685 7.3877H90.5073C90.6272 7.3877 90.7472 7.51305 90.7472 7.6384C90.7472 7.76376 90.6272 7.88911 90.5073 7.88911H90.1873C89.7874 7.84733 89.3874 7.97268 89.0675 8.13982C88.8275 8.26517 88.6676 8.4741 88.5876 8.7248C88.4676 9.22622 88.4276 9.76942 88.4676 10.3126V21.4691C88.4276 22.0123 88.4676 22.5555 88.5876 23.0987C88.7076 23.3494 88.9075 23.5584 89.1475 23.6837C89.4674 23.8509 89.8674 23.9344 90.2273 23.9344H90.5473C90.6672 23.9344 90.7872 24.018 90.7872 24.1434C90.7872 24.2687 90.7072 24.3941 90.5872 24.3941H82.4685C82.3486 24.3941 82.2286 24.3105 82.2286 24.1434C82.2286 24.018 82.3086 23.8926 82.4685 23.8926H82.7885C83.1884 23.8926 83.5884 23.8091 83.9483 23.6419C84.1883 23.5166 84.3482 23.3077 84.4282 23.057C84.5482 22.5555 84.5882 22.0123 84.5482 21.4691V16.455C84.5482 16.3296 84.4682 16.2043 84.3482 16.2043H79.0291ZM91.9073 23.8929C91.7474 23.8929 91.6674 24.0183 91.6674 24.1436C91.6674 24.269 91.7474 24.3526 91.9073 24.4361H103.745C106.665 24.4361 108.425 26.0239 109.065 29.1996C109.065 29.2831 109.145 29.3667 109.265 29.3667H109.385C109.505 29.3667 109.585 29.2414 109.585 29.116V23.9347H109.265C108.585 23.9347 108.105 23.7676 107.865 23.4751C107.625 23.1826 107.505 22.514 107.505 21.4694V10.3129C107.505 9.18472 107.665 8.51616 107.905 8.26545C108.265 7.93118 108.785 7.80582 109.265 7.84761H109.585V7.5969C109.625 7.47155 109.505 7.34619 109.385 7.34619H101.586C101.466 7.34619 101.386 7.47155 101.386 7.5969C101.386 7.76404 101.466 7.84761 101.586 7.84761H101.906C102.626 7.84761 103.106 8.01475 103.306 8.30724C103.505 8.59973 103.625 9.26829 103.625 10.2711V21.7201C103.625 22.5558 103.585 23.0154 103.425 23.1408C103.266 23.2662 102.746 23.3079 101.866 23.3079H99.4661C98.6663 23.3079 98.2263 23.2244 98.0663 23.099C97.9064 22.9737 97.8664 22.4722 97.8664 21.6365V10.3547C97.8664 9.2265 97.9864 8.59973 98.2663 8.30724C98.5463 8.01475 99.0662 7.88939 99.8661 7.88939H100.186V7.63868C100.186 7.51333 100.066 7.38798 99.9461 7.38798H91.9073C91.7474 7.38798 91.6674 7.51333 91.6674 7.63868C91.6674 7.76404 91.7873 7.84761 91.9073 7.84761H92.1873C92.8672 7.84761 93.3471 8.01475 93.5871 8.30724C93.827 8.59973 93.947 9.26829 93.947 10.2711V21.4276C93.947 22.3887 93.827 23.0572 93.6271 23.3915C93.4271 23.7258 92.9072 23.8929 92.1073 23.8929H91.9073ZM117.143 8.39053C117.023 8.39053 116.903 8.4741 116.903 8.64124V15.3268H117.223C118.262 15.3268 118.982 14.9925 119.462 14.3239C119.982 13.4883 120.262 12.5272 120.342 11.5662C120.342 11.4408 120.462 11.3572 120.542 11.3572H120.582C120.702 11.3572 120.782 11.4408 120.782 11.6079V19.9231C120.782 20.0484 120.702 20.1738 120.582 20.1738H120.542C120.422 20.1738 120.342 20.0902 120.342 19.9649C120.262 19.2128 120.062 18.4606 119.742 17.7921C119.502 17.2489 119.142 16.831 118.662 16.5385C118.182 16.3296 117.663 16.2043 117.103 16.2043C116.983 16.2043 116.863 16.2878 116.863 16.4132V20.9677C116.823 21.5527 116.863 22.1377 116.983 22.6809C117.063 22.8898 117.223 23.0987 117.423 23.1823C117.743 23.3494 118.062 23.3912 118.422 23.3912H119.382C120.902 23.3912 122.102 23.0152 123.022 22.3048C123.982 21.4691 124.661 20.3827 124.941 19.1292C124.981 19.0456 125.061 18.962 125.141 18.962C125.261 18.962 125.381 19.0456 125.381 19.171V19.2128L124.701 24.1433C124.701 24.2687 124.581 24.3523 124.501 24.3523H110.904C110.784 24.3523 110.664 24.2687 110.664 24.1433C110.664 24.018 110.744 23.8926 110.864 23.8926H111.184C111.583 23.8926 111.983 23.8091 112.303 23.6419C112.543 23.5166 112.703 23.3077 112.783 23.0569C112.903 22.5555 112.943 22.0123 112.903 21.4691V10.3126C112.903 9.85299 112.903 9.35157 112.863 8.89194C112.783 8.64124 112.623 8.39053 112.423 8.22339C112.063 7.97268 111.623 7.84733 111.184 7.88911H110.864C110.744 7.88911 110.624 7.80554 110.624 7.6384C110.624 7.51305 110.744 7.3877 110.864 7.3877H124.022C124.142 7.3877 124.261 7.51305 124.261 7.6384V12.1929C124.261 12.3183 124.182 12.4436 124.062 12.4436C123.942 12.4436 123.862 12.3601 123.862 12.2765C123.742 11.399 123.422 10.5633 122.902 9.81121C122.422 9.22622 121.822 8.80837 121.102 8.64124C120.262 8.43231 119.422 8.39053 118.582 8.43231H117.143V8.39053ZM133.18 16.9149C133.18 16.7477 133.3 16.6642 133.42 16.6642C134.66 16.706 135.899 16.6224 137.059 16.3299C138.099 16.121 139.059 15.5778 139.779 14.7421C140.459 13.9482 140.819 12.9453 140.779 11.9007C140.779 10.6054 140.219 9.39364 139.259 8.64152C138.259 7.76404 136.579 7.34619 134.26 7.34619H127.381C127.261 7.34619 127.141 7.47155 127.141 7.5969C127.101 7.72225 127.221 7.84761 127.341 7.84761C127.781 7.84761 128.221 7.88939 128.621 8.05653C128.861 8.18189 129.061 8.39081 129.181 8.64152C129.341 9.18472 129.381 9.7697 129.341 10.3547V21.3858C129.381 21.9708 129.341 22.5558 129.181 23.099C129.061 23.3497 128.861 23.5586 128.621 23.684C128.181 23.8511 127.741 23.9347 127.301 23.8929C127.181 23.8929 127.101 24.0183 127.101 24.1436C127.101 24.3108 127.221 24.3943 127.341 24.3943H135.14C135.26 24.3943 135.38 24.269 135.38 24.1436C135.42 24.0183 135.3 23.8929 135.18 23.8929C134.74 23.8929 134.3 23.8511 133.9 23.684C133.66 23.5586 133.46 23.3497 133.34 23.099C133.18 22.5558 133.14 21.9708 133.18 21.3858V16.9149ZM133.22 15.4942V8.59973C133.22 8.43259 133.3 8.34902 133.42 8.39081H133.7C134.74 8.39081 135.54 8.6833 136.059 9.26829C136.579 9.85327 136.859 10.7725 136.859 12.0261C136.859 13.2796 136.579 14.2407 136.059 14.8257C135.5 15.4524 134.66 15.7867 133.82 15.7449H133.42C133.3 15.7031 133.22 15.6196 133.22 15.4942Z" fill="#FF0600"/>
</svg>
